<svg xmlns="http://www.w3.org/2000/svg" width="768" height="180" viewBox="0 0 768 180">
  <defs>
    <style>
      .cls-1 {
        fill: #fff;
        fill-rule: evenodd;
      }
    </style>
  </defs>
  <g id="table-mask">
    <path id="table" class="cls-1" d="M768,1080h768v180H768V1080Zm0,10h90v24H768v-24Zm0,45h70v24H768v-24Zm0,45h80v24H768v-24Zm0,45h90v24H768v-24Zm114-135H982v24H882v-24Zm0,45h120v24H882v-24Zm0,45h130v24H882v-24Zm0,45H992v24H882v-24Zm154-135h100v24H1036v-24Zm0,45h80v24h-80v-24Zm0,45h100v24H1036v-24Zm0,45h110v24H1036v-24Zm134-135h90v24h-90v-24Zm0,45h70v24h-70v-24Zm0,45h80v24h-80v-24Zm0,45h90v24h-90v-24Zm114-135h90v24h-90v-24Zm0,45h110v24H1284v-24Zm0,45h120v24H1284v-24Zm0,45h100v24H1284v-24Zm144,0h84v24h-84v-24Zm0-45h74v24h-74v-24Zm0-45h64v24h-64v-24Zm0-45h84v24h-84v-24Zm-660,34h768v1H768v-1Zm0,45h768v1H768v-1Zm0,45h768v1H768v-1Zm0,45h768v1H768v-1Z" transform="translate(-768 -1080)"/>
  </g>
</svg>
